# xmcd
#
# Track frame offsets:
#	150
#	16831
#	32125
#	52052
#	69363
#	81300
#	98388
#	109188
#	133772
#	147233
#	173422
#	187351
#
# Disc length: 2677 seconds
#
# Revision: 0
# Processed by: cddbd v1.5.1PL0 Copyright (c) Steve Scherf et al.
# Submitted via: EasyCDDAExtractor 8.0.1.1
#
DISCID=a10a730c
DTITLE=Dwight Yoakam - Blame the Vain
DYEAR=2005
DGENRE=Country
TTITLE0=Blame the Vain
TTITLE1=Lucky That Way
TTITLE2=Intentional Heartache
TTITLE3=Does It Show
TTITLE4=Three Good Reasons
TTITLE5=Just Passin' Time
TTITLE6=I'll Pretend
TTITLE7=She'll Remember
TTITLE8=I Wanna Love Again
TTITLE9=When I First Came Here
TTITLE10=Watch Out
TTITLE11=The Last Heart In Line
EXTD=
EXTT0=
EXTT1=
EXTT2=
EXTT3=
EXTT4=
EXTT5=
EXTT6=
EXTT7=
EXTT8=
EXTT9=
EXTT10=
EXTT11=
PLAYORDER=
